<?xml version="1.0" encoding="utf-8"?>
<!-- Generator: Adobe Illustrator 21.0.0, SVG Export Plug-In . SVG Version: 6.00 Build 0)  -->
<svg version="1.1" id="Layer_1" xmlns="http://www.w3.org/2000/svg" xmlns:xlink="http://www.w3.org/1999/xlink" x="0px" y="0px"
	 viewBox="0 0 240 64.7" style="enable-background:new 0 0 240 64.7;" xml:space="preserve">
<style type="text/css">
	.st0{fill:#939598;}
	.st1{fill:#00AEEF;}
	.st2{fill:#2E3192;}
	.st3{fill:#ED1C24;}
	.st4{fill:#0083CA;}
	.st5{fill:#6D67AF;}
	.st6{fill:#2B62AE;}
</style>
<g>
	<g>
		<g>
			<path class="st0" d="M61.6,51.6l0.9,3.5c0.2,0.8,0.4,1.5,0.5,2.2h0c0.2-0.7,0.4-1.4,0.6-2.2l1.1-3.5h1.1L67,55
				c0.3,0.8,0.5,1.6,0.6,2.3h0c0.1-0.7,0.3-1.4,0.5-2.2l1-3.5h1.2l-2.2,6.9H67L66,55.2c-0.2-0.8-0.4-1.5-0.6-2.3h0
				c-0.2,0.8-0.4,1.5-0.6,2.3l-1.1,3.3h-1.1l-2.1-6.9H61.6z"/>
			<path class="st0" d="M75.2,51.6l0.9,3.5c0.2,0.8,0.4,1.5,0.5,2.2h0c0.2-0.7,0.4-1.4,0.6-2.2l1.1-3.5h1.1l1.1,3.5
				c0.3,0.8,0.5,1.6,0.6,2.3h0c0.1-0.7,0.3-1.4,0.5-2.2l1-3.5h1.2l-2.2,6.9h-1.1l-1.1-3.3c-0.2-0.8-0.4-1.5-0.6-2.3h0
				c-0.2,0.8-0.4,1.5-0.6,2.3l-1.1,3.3H76l-2.1-6.9H75.2z"/>
			<path class="st0" d="M88.7,51.6l0.9,3.5c0.2,0.8,0.4,1.5,0.5,2.2h0c0.2-0.7,0.4-1.4,0.6-2.2l1.1-3.5H93l1.1,3.5
				c0.3,0.8,0.5,1.6,0.6,2.3h0c0.1-0.7,0.3-1.4,0.5-2.2l1-3.5h1.2l-2.2,6.9h-1.1l-1.1-3.3c-0.2-0.8-0.4-1.5-0.6-2.3h0
				c-0.2,0.8-0.4,1.5-0.6,2.3l-1.1,3.3h-1.1l-2.1-6.9H88.7z"/>
			<path class="st0" d="M100.7,57.7c0-0.5,0.4-0.9,0.9-0.9c0.5,0,0.8,0.4,0.8,0.9c0,0.5-0.3,0.9-0.9,0.9
				C101.1,58.6,100.7,58.2,100.7,57.7z"/>
			<path class="st0" d="M111.8,58.2c-0.3,0.2-1.1,0.4-2,0.4c-2.1,0-3.4-1.4-3.4-3.5c0-2.1,1.5-3.7,3.7-3.7c0.7,0,1.4,0.2,1.7,0.4
				l-0.3,1c-0.3-0.2-0.8-0.3-1.5-0.3c-1.6,0-2.4,1.2-2.4,2.6c0,1.6,1,2.6,2.4,2.6c0.7,0,1.2-0.2,1.5-0.3L111.8,58.2z"/>
			<path class="st0" d="M116.1,49h1.3v3.6h0c0.2-0.4,0.5-0.7,0.9-0.9c0.4-0.2,0.8-0.4,1.3-0.4c0.9,0,2.4,0.6,2.4,3v4.1h-1.3v-4
				c0-1.1-0.4-2.1-1.6-2.1c-0.8,0-1.5,0.6-1.7,1.3c-0.1,0.2-0.1,0.4-0.1,0.6v4.2h-1.3V49z"/>
			<path class="st0" d="M130.7,58.5l-0.1-0.9h0c-0.4,0.5-1.1,1-2.1,1c-1.4,0-2.1-1-2.1-2c0-1.7,1.5-2.6,4.2-2.6v-0.1
				c0-0.6-0.2-1.6-1.6-1.6c-0.6,0-1.3,0.2-1.8,0.5l-0.3-0.8c0.6-0.4,1.4-0.6,2.3-0.6c2.1,0,2.6,1.4,2.6,2.8v2.6c0,0.6,0,1.2,0.1,1.7
				H130.7z M130.6,54.9c-1.4,0-2.9,0.2-2.9,1.6c0,0.8,0.5,1.2,1.2,1.2c0.9,0,1.5-0.6,1.7-1.2c0-0.1,0.1-0.3,0.1-0.4V54.9z"/>
			<path class="st0" d="M138.1,49.6c0,0.4-0.3,0.8-0.8,0.8c-0.4,0-0.8-0.3-0.8-0.8c0-0.4,0.3-0.8,0.8-0.8
				C137.8,48.8,138.1,49.2,138.1,49.6z M136.7,58.5v-6.9h1.3v6.9H136.7z"/>
			<path class="st0" d="M142.9,53.4c0-0.7,0-1.3-0.1-1.9h1.1l0.1,1.1h0c0.3-0.7,1.1-1.3,2.3-1.3c1,0,2.4,0.6,2.4,2.9v4.1h-1.3v-4
				c0-1.1-0.4-2-1.6-2c-0.8,0-1.5,0.6-1.7,1.3c-0.1,0.2-0.1,0.4-0.1,0.6v4.2h-1.3V53.4z"/>
			<path class="st0" d="M153.6,53.4c0-0.7,0-1.3-0.1-1.9h1.1l0.1,1.1h0c0.3-0.7,1.1-1.3,2.3-1.3c1,0,2.4,0.6,2.4,2.9v4.1h-1.3v-4
				c0-1.1-0.4-2-1.6-2c-0.8,0-1.5,0.6-1.7,1.3c-0.1,0.2-0.1,0.4-0.1,0.6v4.2h-1.3V53.4z"/>
			<path class="st0" d="M170.7,55c0,2.6-1.8,3.7-3.4,3.7c-1.9,0-3.3-1.4-3.3-3.6c0-2.3,1.5-3.7,3.4-3.7
				C169.4,51.4,170.7,52.8,170.7,55z M165.2,55c0,1.5,0.9,2.7,2.1,2.7c1.2,0,2.1-1.1,2.1-2.7c0-1.2-0.6-2.7-2.1-2.7
				C165.9,52.3,165.2,53.7,165.2,55z"/>
			<path class="st0" d="M175.5,51.6l1.4,3.9c0.2,0.6,0.4,1.2,0.6,1.8h0c0.2-0.6,0.4-1.1,0.6-1.8l1.3-3.9h1.3l-2.7,6.9h-1.2l-2.6-6.9
				H175.5z"/>
			<path class="st0" d="M188.5,58.5l-0.1-0.9h0c-0.4,0.5-1.1,1-2.1,1c-1.4,0-2.1-1-2.1-2c0-1.7,1.5-2.6,4.2-2.6v-0.1
				c0-0.6-0.2-1.6-1.6-1.6c-0.6,0-1.3,0.2-1.8,0.5l-0.3-0.8c0.6-0.4,1.4-0.6,2.3-0.6c2.1,0,2.6,1.4,2.6,2.8v2.6c0,0.6,0,1.2,0.1,1.7
				H188.5z M188.4,54.9c-1.4,0-2.9,0.2-2.9,1.6c0,0.8,0.5,1.2,1.2,1.2c0.9,0,1.5-0.6,1.7-1.2c0-0.1,0.1-0.3,0.1-0.4V54.9z"/>
			<path class="st0" d="M194.2,57.7c0-0.5,0.4-0.9,0.9-0.9c0.5,0,0.8,0.4,0.8,0.9c0,0.5-0.3,0.9-0.9,0.9
				C194.5,58.6,194.2,58.2,194.2,57.7z"/>
			<path class="st0" d="M205.2,58.2c-0.3,0.2-1.1,0.4-2,0.4c-2.1,0-3.4-1.4-3.4-3.5c0-2.1,1.5-3.7,3.7-3.7c0.7,0,1.4,0.2,1.7,0.4
				l-0.3,1c-0.3-0.2-0.8-0.3-1.5-0.3c-1.6,0-2.4,1.2-2.4,2.6c0,1.6,1,2.6,2.4,2.6c0.7,0,1.2-0.2,1.5-0.3L205.2,58.2z"/>
			<path class="st0" d="M215.7,55c0,2.6-1.8,3.7-3.4,3.7c-1.9,0-3.3-1.4-3.3-3.6c0-2.3,1.5-3.7,3.4-3.7
				C214.4,51.4,215.7,52.8,215.7,55z M210.2,55c0,1.5,0.9,2.7,2.1,2.7c1.2,0,2.1-1.1,2.1-2.7c0-1.2-0.6-2.7-2.1-2.7
				C210.9,52.3,210.2,53.7,210.2,55z"/>
			<path class="st0" d="M220.2,53.4c0-0.7,0-1.3-0.1-1.9h1.1l0.1,1.1h0c0.4-0.7,1-1.3,2.2-1.3c0.9,0,1.7,0.6,2,1.4h0
				c0.2-0.4,0.5-0.7,0.8-0.9c0.4-0.3,0.9-0.5,1.5-0.5c0.9,0,2.3,0.6,2.3,3v4.1h-1.2v-3.9c0-1.3-0.5-2.1-1.5-2.1
				c-0.7,0-1.3,0.5-1.5,1.1c-0.1,0.2-0.1,0.4-0.1,0.6v4.3h-1.2v-4.1c0-1.1-0.5-1.9-1.4-1.9c-0.8,0-1.4,0.6-1.6,1.3
				c-0.1,0.2-0.1,0.4-0.1,0.6v4.2h-1.2V53.4z"/>
		</g>
		<g>
			<path d="M60.7,24.9L72.2,19l6.7,5.8v-5l-4.6-3.6l4.6,0.1v-3.2l-4.6-0.1l-0.1-4.8h4.6V5H64.9L65,2.6h-4.3v2.3
				c0,1.9,1.7,3.5,3.8,3.5h5.1l0.1,4.8h-9v3.2h9l-9,4.3V24.9z"/>
			<path d="M85.5,8.4H90c1.3,0,2.4,1,2.4,2.2l0,8.5c0,1.3-1.1,2.3-2.5,2.3h-9v3.4h11c2.8,0,5.1-2.1,5.1-4.7L97,9c0-2.2-2-4-4.4-4
				H80.9l0,13.2h4.6L85.5,8.4z"/>
			<path d="M109,2.6h-4.6l0,2.5c0,1.8,1.6,3.2,3.5,3.2h9.3V5h-8.2L109,2.6z"/>
			<path d="M104.4,16.5h2.2l0,10.2h-2.2V30h2.2l0,10.9c0,2,1.7,3.5,3.9,3.5h6.6V41h-4.6c-0.7,0-1.3-0.5-1.3-1.2l0-9.8h5.9v-3.4h-5.9
				l0-10.2h5.9v-3.4h-12.7V16.5z"/>
			<path d="M124.1,13.1h-4.6v27.3c0,2.2,2,4,4.4,4h17.5v-3.4h-15.2c-1.2,0-2.2-0.9-2.2-2V13.1z"/>
			<polygon points="127.7,20.8 127.7,24.1 134,24.1 134,26.7 126.2,26.7 126.2,30 134,30 134,39.7 138.6,39.7 138.6,30 141.5,30 
				141.5,26.7 138.6,26.7 138.6,24.1 141.5,24.1 141.5,20.8 138.6,20.8 138.6,13.1 134,13.1 134,20.8 132.4,20.8 133.6,8.4 
				141.5,8.4 141.5,5 134,5 134.2,2.6 129.7,2.6 129.5,5 126.2,5 126.2,8.4 129.1,8.4 			"/>
			<rect x="119.5" y="5" width="4.6" height="4.7"/>
			<path d="M148.5,8.2h8.7l-1.7,31.4c0,0.8-0.8,1.5-1.7,1.5h-5.3v3.3h7.1c2.4,0,4.4-1.7,4.5-3.9l1.1-22.5h16.3
				c0.9,0,1.6,0.6,1.6,1.4v20c0,0.9-0.8,1.6-1.7,1.6h-4.8v3.5h6.7c2.5,0,4.5-1.8,4.5-4.1V17.2c0-1.4-1.3-2.6-2.8-2.6h-19.5l0.4-6.4
				h23.8V4.9h-37.1V8.2z"/>
			<path d="M200,26.7h-2.8c-2.5,0-4.6,1.9-4.6,4.2v13.6h4.6V30h2.7V26.7z"/>
			<path d="M200,13.2V9.8h-2.7V2.6h-4.6v6.8c0,2.1,1.8,3.8,4.1,3.8H200z"/>
			<polygon points="207.1,44.5 210.7,44.5 211.3,31.8 207.7,31.8 			"/>
			<path d="M200,23.6v-3.4h-2.7v-4.8h-4.6V20c0,2,1.8,3.6,4,3.6H200z"/>
			<path d="M229.8,2.7H201l0.1,38.5h-1.4v3.3h1.8c2.3,0,4.2-1.7,4.2-3.9l-0.1-34.5h24.1V2.7z"/>
			<polygon points="229.1,31.8 225.5,31.8 226.3,44.5 229.9,44.5 			"/>
			<path d="M229.3,26.3V15.6c0-2-1.8-3.7-4-3.7h-4.6V9.3h-4.6v2.7h-9v10.8h14.4v-3.4h-9.8v-4h10.8c1.2,0,2.2,0.9,2.2,2.1v7
				c0,1.3-1.2,2.4-2.6,2.4h-15v3.4h9l0.1,11.1h-3.1v3.3h3.6c2.2,0,4-1.7,4-3.7l-0.1-10.6h4.5C227.5,30.1,229.3,28.4,229.3,26.3z"/>
			<path d="M69.9,33.8v3.4h22.3c2.4,0,4.3-1.8,4.3-3.9V30c0-1.7-1.5-3.4-3.4-3.4H64.9c-2.3,0-4.2,1.7-4.2,3.9v9.5
				c0,2.4,2.2,4.4,4.8,4.4H93c2.5,0,3.4-0.7,3.4-3.5l0,0H67.7c-1.4,0-2.5-1-2.5-2.3v-7.1c0-0.9,0.8-1.6,1.8-1.6h24.8v3.8H69.9z"/>
		</g>
	</g>
	<g>
		<g>
			<path class="st1" d="M25.7,1.2c-0.9,0-1.8,0.5-2.2,1.3c-0.7,1.2-0.3,2.8,0.9,3.5l1,0.6V3.8l0.3-0.3L26,3.8V7l17.6,10.2l3.7-2.2
				c0.4-0.3,0.9-0.4,1.3-0.4c0.9,0,1.7,0.4,2.2,1.2c0.5,0.8,0.5,1.9,0,2.6c0,0,0,0,0,0c0.7-1.2,0.3-2.8-0.9-3.5L27,1.6
				C26.6,1.3,26.1,1.2,25.7,1.2"/>
			<path class="st2" d="M4.1,47.4l45.8-28c1.2-0.7,1.6-2.3,0.9-3.6c-0.7-1.2-2.3-1.6-3.6-0.9l-45.8,28c-1.2,0.7-1.6,2.3-0.9,3.6
				C1.3,47.7,2.9,48.1,4.1,47.4"/>
			<polyline class="st2" points="48.3,17.1 48.3,45.1 48.6,45.4 48.9,45.1 48.9,17.1 48.6,16.8 48.3,17.1 			"/>
			<circle class="st3" cx="48.5" cy="30.7" r="2.3"/>
			<circle class="st3" cx="2.6" cy="30.7" r="2.3"/>
			<path class="st1" d="M24.6,59.8c0.3,0.2,0.7,0.2,1.1,0.2C25.3,60.1,24.9,60,24.6,59.8 M26.9,59.7L26.9,59.7
				c-0.1,0-0.1,0.1-0.2,0.1C26.8,59.8,26.9,59.8,26.9,59.7 M8,45l-3.9,2.4c-0.4,0.3-0.9,0.4-1.3,0.4c-0.3,0-0.5,0-0.8-0.1l22.5,12.1
				c-0.4-0.2-0.8-0.6-1-1c-0.7-1.3-0.2-2.8,1-3.5l0.9-0.5v-0.3L8,45 M1.7,42.8c-0.4,0.2-0.8,0.5-1.1,0.9c0.2-0.3,0.5-0.6,0.8-0.8
				L1.7,42.8"/>
			<path class="st4" d="M3.1,42.5v2.6l-0.3,0.3l-0.3-0.3v-2.6c-0.3,0-0.5,0.1-0.8,0.2l-0.3,0.2c-0.3,0.2-0.6,0.5-0.8,0.8
				c0,0.1-0.1,0.1-0.1,0.2c-0.7,1.3-0.2,2.8,1,3.5L2,47.6c0.3,0.1,0.5,0.1,0.8,0.1c0.5,0,0.9-0.1,1.3-0.4L8,45l-4-2.1
				C3.7,42.7,3.4,42.6,3.1,42.5"/>
			<polyline class="st1" points="2.5,17.2 2.5,45.1 2.8,45.4 3.1,45.1 3.1,17.2 2.8,16.9 2.5,17.2 			"/>
			<path class="st5" d="M25.4,6.6v8.6l0.6-0.3c0,0,0.1,0,0.1-0.1V7L25.4,6.6"/>
			<polyline class="st6" points="25.7,3.5 25.4,3.8 25.4,6.6 26,7 26,3.8 25.7,3.5 			"/>
			<path class="st5" d="M26,34l-0.6,0.4v20l0.3,0.2l0.3-0.2V34 M26,20.7l-0.6,0.4v7.2l0.6-0.4V20.7"/>
			<polyline class="st2" points="26,27.9 25.4,28.3 25.4,34.4 26,34 26,27.9 			"/>
			<polyline class="st6" points="25.4,54.4 25.4,54.7 25.7,54.5 25.4,54.4 			"/>
			<path class="st2" d="M26.9,59.7l22.9-12.4c1.3-0.7,1.7-2.2,1-3.5c-0.7-1.3-2.2-1.7-3.5-1L24.5,55.2c-1.3,0.7-1.7,2.2-1,3.5
				C24.1,60,25.6,60.4,26.9,59.7"/>
			<path class="st2" d="M16,26.3l12.4-6.9c1.2-0.7,1.7-2.3,1-3.5c-0.7-1.2-2.3-1.7-3.5-1l-12.4,6.9c-1.2,0.7-1.7,2.3-1,3.5
				C13.2,26.5,14.8,27,16,26.3"/>
			<path class="st1" d="M13.7,26.4c0.3,0.2,0.7,0.2,1,0.2C14.4,26.6,14,26.5,13.7,26.4 M16,26.2L16,26.2c-0.1,0.1-0.2,0.1-0.2,0.1
				C15.9,26.3,16,26.3,16,26.2 M2.8,14.5c-0.9,0-1.8,0.5-2.2,1.3c-0.7,1.2-0.3,2.8,1,3.5l1,0.6v-2.7l0.3-0.3l0.3,0.3v3.1l10.3,5.9
				c-0.4-0.2-0.7-0.5-0.9-1c-0.7-1.2-0.2-2.8,1-3.5l1.3-0.7L4.1,14.9C3.7,14.6,3.2,14.5,2.8,14.5"/>
			<polyline class="st4" points="2.8,16.9 2.5,17.2 2.5,19.9 3.1,20.3 3.1,17.2 2.8,16.9 			"/>
			<path class="st4" d="M14.8,21l-1.3,0.7c-1.2,0.7-1.7,2.3-1,3.5c0.2,0.4,0.6,0.7,0.9,1l0,0c0.1,0,0.2,0.1,0.2,0.1
				c0.3,0.1,0.7,0.2,1,0.2c0,0,0,0,0,0c0.4,0,0.7-0.1,1.1-0.2c0.1,0,0.1-0.1,0.2-0.1l0,0c0.4-0.2,0.7-0.5,0.9-0.9
				c0.7-1.2,0.3-2.8-1-3.5L14.8,21"/>
			<path class="st1" d="M50.4,47c-0.2,0.2-0.3,0.3-0.5,0.4l-0.1,0C50,47.3,50.2,47.2,50.4,47 M50.9,46.3L50.9,46.3L50.9,46.3
				 M51.2,45.2c0,0.4-0.1,0.7-0.3,1.1C51.1,46,51.2,45.6,51.2,45.2 M51,44.2C51,44.2,51,44.2,51,44.2C51,44.2,51,44.2,51,44.2
				 M50.5,43.3c0.2,0.2,0.3,0.4,0.4,0.6C51,44,51,44.1,51,44.2C50.9,43.9,50.7,43.6,50.5,43.3 M50.5,43.3
				C50.5,43.3,50.5,43.3,50.5,43.3C50.5,43.3,50.5,43.3,50.5,43.3 M48.9,42.2v0.3c0.4,0,0.8,0.2,1.1,0.4L48.9,42.2 M37.5,35
				c-0.8,0-1.6,0.4-2.1,1.1c-0.8,1.2-0.5,2.8,0.7,3.6l7.6,5.1l3.8-2c0.3-0.2,0.6-0.3,0.9-0.3v-0.8L39,35.5C38.5,35.2,38,35,37.5,35"
				/>
			<path class="st4" d="M48.3,41.8v0.8c0.1,0,0.2,0,0.3,0c0.1,0,0.2,0,0.3,0v-0.3L48.3,41.8"/>
			<path class="st4" d="M48.6,42.5c-0.1,0-0.2,0-0.3,0c-0.3,0-0.6,0.1-0.9,0.3l-3.8,2l3.5,2.4c0.4,0.3,0.9,0.4,1.4,0.4
				c0.4,0,0.8-0.1,1.2-0.3l0.1,0c0.2-0.1,0.4-0.2,0.5-0.4c0.1-0.1,0.3-0.3,0.4-0.4c0.1-0.1,0.1-0.2,0.2-0.3l0,0c0,0,0,0,0,0
				c0.2-0.3,0.3-0.7,0.3-1.1c0-0.3,0-0.7-0.2-1c0,0,0,0,0,0l0,0c0-0.1-0.1-0.2-0.1-0.3c-0.1-0.2-0.2-0.4-0.4-0.6c0,0,0,0,0,0
				c0,0,0,0,0,0c-0.1-0.1-0.3-0.2-0.4-0.3l0,0c-0.3-0.2-0.7-0.3-1.1-0.4C48.8,42.5,48.7,42.5,48.6,42.5"/>
			<path class="st2" d="M4.1,19.3L27,6c1.2-0.7,1.7-2.3,0.9-3.5c-0.7-1.2-2.3-1.7-3.5-0.9L1.5,14.9c-1.2,0.7-1.7,2.3-0.9,3.5
				C1.3,19.6,2.8,20.1,4.1,19.3"/>
			<path class="st2" d="M26.1,47.3l12.8-7.5c1.2-0.7,1.6-2.3,0.9-3.5c-0.7-1.2-2.3-1.6-3.5-0.9l-12.8,7.5c-1.2,0.7-1.6,2.3-0.9,3.5
				C23.2,47.6,24.8,48.1,26.1,47.3"/>
		</g>
	</g>
</g>
</svg>
